<svg xmlns="http://www.w3.org/2000/svg" xmlns:xlink="http://www.w3.org/1999/xlink" width="500" zoomAndPan="magnify" viewBox="0 0 375 374.999991" height="500" preserveAspectRatio="xMidYMid meet" version="1.0"><defs><g/><clipPath id="190e9e1fce"><path d="M 5.207031 0 L 375 0 L 375 375 L 5.207031 375 Z M 5.207031 0 " clip-rule="nonzero"/></clipPath><clipPath id="3c3063d680"><path d="M 192.707031 375 C 142.648438 375 95.511719 355.515625 60.140625 320.070312 C 24.691406 284.695312 5.207031 237.558594 5.207031 187.5 C 5.207031 137.441406 24.691406 90.304688 60.140625 54.929688 C 95.511719 19.484375 142.648438 0 192.707031 0 C 242.769531 0 289.90625 19.484375 325.277344 54.929688 C 360.722656 90.378906 380.207031 137.441406 380.207031 187.5 C 380.207031 237.558594 360.722656 284.695312 325.277344 320.070312 C 289.90625 355.515625 242.769531 375 192.707031 375 Z M 192.707031 11.242188 C 145.644531 11.242188 101.355469 29.601562 68.082031 62.875 C 34.808594 96.148438 16.449219 140.4375 16.449219 187.5 C 16.449219 234.5625 34.808594 278.851562 68.082031 312.125 C 101.355469 345.398438 145.644531 363.757812 192.707031 363.757812 C 239.769531 363.757812 284.058594 345.398438 317.332031 312.125 C 350.605469 278.851562 368.96875 234.5625 368.96875 187.5 C 368.96875 140.4375 350.605469 96.148438 317.332031 62.875 C 284.058594 29.601562 239.769531 11.242188 192.707031 11.242188 Z M 192.707031 11.242188 " clip-rule="nonzero"/></clipPath></defs><g clip-path="url(#190e9e1fce)"><g clip-path="url(#3c3063d680)"><path fill="#000000" d="M 5.207031 0 L 379.910156 0 L 379.910156 374.699219 L 5.207031 374.699219 Z M 5.207031 0 " fill-opacity="1" fill-rule="nonzero"/></g></g><g fill="#000000" fill-opacity="1"><g transform="translate(91.118663, 271.974696)"><g><path d="M 33.953125 -209.40625 C 46.304688 -214.539062 58.191406 -217.109375 69.609375 -217.109375 C 79.117188 -217.109375 88.914062 -213.59375 99 -206.5625 C 104.507812 -202.75 110.6875 -195.328125 117.53125 -184.296875 C 122.101562 -176.691406 127.90625 -162.90625 134.9375 -142.9375 L 169.75 -44.21875 C 177.738281 -22.15625 185.867188 -4.613281 194.140625 8.40625 C 202.410156 21.4375 209.96875 31.234375 216.8125 37.796875 C 223.664062 44.359375 230.800781 48.972656 238.21875 51.640625 C 245.632812 54.304688 251.765625 55.640625 256.609375 55.640625 C 261.460938 55.640625 265.789062 55.253906 269.59375 54.484375 L 269.890625 57.34375 C 260.753906 60.382812 251.8125 61.90625 243.0625 61.90625 C 234.3125 61.90625 225.5625 59.671875 216.8125 55.203125 C 208.070312 50.734375 199.894531 44.503906 192.28125 36.515625 C 175.925781 19.972656 162.039062 -5.222656 150.625 -39.078125 L 139.5 -71.609375 L 61.328125 -71.609375 L 41.65625 -20.828125 C 40.695312 -18.546875 40.21875 -16.265625 40.21875 -13.984375 C 40.21875 -11.703125 41.21875 -9.273438 43.21875 -6.703125 C 45.21875 -4.140625 48.304688 -2.859375 52.484375 -2.859375 L 54.765625 -2.859375 L 54.765625 0 L -2.578125 0 L -2.578125 -2.859375 L 0 -2.859375 C 4.5625 -2.859375 9.03125 -4.234375 13.40625 -6.984375 C 17.78125 -9.742188 21.394531 -13.882812 24.25 -19.40625 L 95 -188.859375 C 84.726562 -203.503906 71.984375 -210.828125 56.765625 -210.828125 C 49.921875 -210.828125 42.597656 -209.40625 34.796875 -206.5625 Z M 64.46875 -80.171875 L 136.65625 -80.171875 L 114.109375 -146.640625 C 109.734375 -159.378906 105.738281 -169.363281 102.125 -176.59375 Z M 64.46875 -80.171875 "/></g></g></g></svg>